<svg id="Capa_1" enable-background="new 0 0 512 512" height="512" viewBox="0 0 512 512" width="512" xmlns="http://www.w3.org/2000/svg" style="fill:#fff"><g><g><path d="m459.479 331.982-30.059-15.021v-69.219c9.109 0 16.516-7.407 16.516-16.516v-33.032c0-9.109-7.408-16.516-16.516-16.516h-115.614c-9.109 0-16.516 7.407-16.516 16.516v33.032c0 9.109 7.407 16.516 16.516 16.516v69.219l-30.059 15.021c-32.388 16.202-52.521 48.772-52.521 84.992 0 52.397 42.628 95.026 95.026 95.026h90.723c52.397 0 95.025-42.628 95.025-95.026 0-36.219-20.125-68.789-52.521-84.992zm-145.673-133.788h115.613l.008 33.032h-115.621zm-22.668 148.562 39.185-19.588v-79.426h82.581v79.426l39.185 19.588c20.43 10.215 34.882 28.333 40.613 49.631h-130.18c-3.84-18.82-20.513-33.032-40.456-33.032s-36.616 14.212-40.456 33.032h-31.092c5.738-21.297 20.19-39.416 40.62-49.631zm154.797 82.663c0 9.109-7.408 16.516-16.516 16.516s-16.516-7.408-16.516-16.516 7.408-16.516 16.516-16.516 16.516 7.408 16.516 16.516zm-100.616-33.032h-46.501c3.419-9.588 12.503-16.516 23.255-16.516s19.827 6.928 23.246 16.516zm71.655 99.097h-90.723c-43.289 0-78.509-35.221-78.509-78.509 0-1.379.215-2.709.281-4.071h152.956c-2.841 4.881-4.591 10.471-4.591 16.516 0 18.217 14.815 33.032 33.032 33.032s33.032-14.815 33.032-33.032c0-6.045-1.751-11.636-4.591-16.516h37.343c.066 1.363.281 2.692.281 4.071-.001 43.288-35.222 78.509-78.511 78.509z"/><path d="m305.548 429.419c-13.659 0-24.774 11.115-24.774 24.774s11.115 24.774 24.774 24.774 24.774-11.115 24.774-24.774c.001-13.658-11.115-24.774-24.774-24.774zm0 33.033c-4.558 0-8.258-3.7-8.258-8.258s3.7-8.258 8.258-8.258 8.258 3.7 8.258 8.258-3.699 8.258-8.258 8.258z"/><path d="m412.903 140.387c0 13.659 11.115 24.774 24.774 24.774s24.774-11.115 24.774-24.774-11.115-24.774-24.774-24.774c-13.658 0-24.774 11.115-24.774 24.774zm24.774-8.258c4.558 0 8.258 3.708 8.258 8.258s-3.7 8.258-8.258 8.258-8.258-3.708-8.258-8.258 3.7-8.258 8.258-8.258z"/><path d="m272.516 165.161c13.659 0 24.774-11.115 24.774-24.774s-11.115-24.774-24.774-24.774-24.774 11.115-24.774 24.774 11.115 24.774 24.774 24.774zm0-33.032c4.558 0 8.258 3.708 8.258 8.258s-3.7 8.258-8.258 8.258-8.258-3.708-8.258-8.258 3.7-8.258 8.258-8.258z"/><path d="m363.355 132.129c36.426 0 66.065-29.638 66.065-66.065s-29.639-66.064-66.065-66.064-66.065 29.638-66.065 66.065 29.638 66.064 66.065 66.064zm0-115.613c27.326 0 49.548 22.222 49.548 49.548s-22.222 49.548-49.548 49.548-49.548-22.222-49.548-49.548 22.222-49.548 49.548-49.548z"/><path d="m379.871 66.065h16.516c0-18.217-14.815-33.032-33.032-33.032v16.516c9.108-.001 16.516 7.407 16.516 16.516z"/><path d="m214.71 445.935h-55.544c13.766-12.115 22.511-29.812 22.511-49.548v-82.581c0-36.426-29.638-66.065-66.065-66.065s-66.065 29.638-66.065 66.065v82.581c0 19.737 8.745 37.434 22.511 49.548h-55.542c-9.109 0-16.516 7.408-16.516 16.517v33.032c0 9.108 7.407 16.516 16.516 16.516h198.194c9.109 0 16.516-7.408 16.516-16.516v-33.032c0-9.109-7.408-16.517-16.516-16.517zm-99.097-181.677c27.326 0 49.548 22.222 49.548 49.548v33.032h-99.096v-33.032c0-27.325 22.222-49.548 49.548-49.548zm-49.548 132.129v-33.032h99.097v33.032c0 27.326-22.222 49.548-49.548 49.548s-49.549-22.222-49.549-49.548zm-49.549 99.097v-33.032h198.194l.017 33.032z"/><path d="m198.194 280.774h16.516v16.516h-16.516z"/><path d="m231.226 280.774h16.516v16.516h-16.516z"/><path d="m264.258 280.774h16.516v16.516h-16.516z"/><path d="m99.097 132.129c0 9.109 7.407 16.516 16.516 16.516h16.516c9.109 0 16.516-7.407 16.516-16.516 9.109 0 16.516-7.407 16.516-16.516v-16.516c0-9.109-7.407-16.516-16.516-16.516 0-9.109-7.407-16.516-16.516-16.516h-16.516c-9.109 0-16.516 7.407-16.516 16.516-9.109 0-16.516 7.407-16.516 16.516v16.516c0 9.109 7.407 16.516 16.516 16.516zm0-33.032h16.516v-16.516h16.516v16.516h16.516v16.516h-16.516v16.516h-16.516v-16.516h-16.516z"/><path d="m49.548 181.677h51.365l4.691 18.762c2.098 8.407 9.612 14.27 18.267 14.27s16.169-5.863 18.267-14.27l4.691-18.762h51.365c18.217 0 33.032-14.815 33.032-33.032v-82.58c0-18.217-14.815-33.032-33.032-33.032h-148.646c-18.217 0-33.032 14.815-33.032 33.032v82.581c0 18.216 14.815 33.031 33.032 33.031zm-16.516-115.612c0-9.109 7.407-16.516 16.516-16.516h148.645c9.109 0 16.516 7.407 16.516 16.516v82.581c0 9.109-7.407 16.516-16.516 16.516h-64.248l-7.82 31.273c-.52 2.073-3.98 2.073-4.501 0l-7.829-31.273h-64.247c-9.109 0-16.516-7.407-16.516-16.516z"/></g></g></svg>